/* XPM */
static char * hub_xpm[] = {
"22 22 101 2",
"  	c None",
". 	c #AEAEAE",
"+ 	c #B4B6BB",
"@ 	c #878988",
"# 	c #C0BFC0",
"$ 	c #B2B1C2",
"% 	c #A9AAC0",
"& 	c #9190B9",
"* 	c #D7E2E8",
"= 	c #797878",
"- 	c #3C3732",
"; 	c #A9A7A6",
"> 	c #C3C3C5",
", 	c #B9B9C3",
"' 	c #C0BFCE",
") 	c #A49EB5",
"! 	c #6F73A1",
"~ 	c #BDBCBD",
"{ 	c #2B2C2B",
"] 	c #A1A1A2",
"^ 	c #BAB9BD",
"/ 	c #B6A6B3",
"( 	c #8C8FA9",
"_ 	c #7B7DA1",
": 	c #92A8CF",
"< 	c #82C8E9",
"[ 	c #86D4F9",
"} 	c #7B8EC0",
"| 	c #9D9FAD",
"1 	c #678BA6",
"2 	c #78AED1",
"3 	c #96CDE4",
"4 	c #B0E1F0",
"5 	c #BAF8FF",
"6 	c #AEF2FF",
"7 	c #8DE7FF",
"8 	c #6D93D1",
"9 	c #ABAEB9",
"0 	c #5EBCEE",
"a 	c #76DBFF",
"b 	c #559BE4",
"c 	c #9A99C4",
"d 	c #5CBFE0",
"e 	c #64CCFE",
"f 	c #50C4FF",
"g 	c #51ADF5",
"h 	c #AFA99F",
"i 	c #D4D4D4",
"j 	c #3FB8FE",
"k 	c #D6B350",
"l 	c #EACC6C",
"m 	c #E2B42C",
"n 	c #AF6B0B",
"o 	c #969593",
"p 	c #B4B4B4",
"q 	c #40A8F8",
"r 	c #30AFFF",
"s 	c #E5CF96",
"t 	c #FBF7BE",
"u 	c #FFE856",
"v 	c #BB8508",
"w 	c #3892E7",
"x 	c #27A7FE",
"y 	c #5384CE",
"z 	c #FAEB8B",
"A 	c #F6D14A",
"B 	c #6B6877",
"C 	c #3792D2",
"D 	c #17A2FF",
"E 	c #A68C5C",
"F 	c #C5B16F",
"G 	c #9C7931",
"H 	c #4E2D06",
"I 	c #535557",
"J 	c #0E93FE",
"K 	c #646AC5",
"L 	c #7C7BB9",
"M 	c #D4ECFC",
"N 	c #24272B",
"O 	c #4A48B7",
"P 	c #2D2D9C",
"Q 	c #839CD9",
"R 	c #D9D6E0",
"S 	c #B6B4DC",
"T 	c #B4A9D4",
"U 	c #DFDEDE",
"V 	c #D0CFD0",
"W 	c #6568A7",
"X 	c #C8C9D8",
"Y 	c #F8F4F4",
"Z 	c #FEFFFF",
"` 	c #E3E4E3",
" .	c #6E75B3",
"..	c #EFEDEF",
"+.	c #B1BBCD",
"@.	c #AFB1CF",
"#.	c #D9D9D9",
"$.	c #C8D4DA",
"%.	c #D2D1DC",
"&.	c #6D6A93",
"*.	c #B9B7B6",
"                                            ",
"  . + @ @ #           # # # $ $ % & &       ",
"  . * = - ;     # > , ' % ) & ! ! ! ! ~     ",
"  . * = { ]     ^ / ( _ _ _ ( : < [ } ^     ",
"  . * = { ]   | 1 2 2 3 4 5 5 6 7 7 8 %     ",
"  . * = { ] , 9 0 a 7 7 6 6 6 7 7 a b c     ",
"  . * = { ] , $ d e a 7 7 7 7 7 a a b c     ",
"  . * = { ] # $ 8 f e a a a a a e e g &     ",
"  h i = { ]   $ } j f e e e e e f f j }     ",
"  k l m n o p 9 & q j f f f f f j j r 8     ",
"  s t u v ;     c w r j j j j j r r x y     ",
"  l z A v - { { B C D x x x x x r w y }     ",
"  E F G H - I I B y J D D D x b K L $       ",
"  . M = N ]     , } J J x b K O P )         ",
"  . * = { ]     $ L y Q c L O O O L         ",
"  . * = { ]   % R S T U V c L K K W L (     ",
"  . * = { ] $ X Y Z Z ` i % c L L  .& !     ",
"  . * = { ] % R ......U i +.@.c c _ & !     ",
"  . * = { ] + ) #.` U i V ' @., & L L _     ",
"  . $.= { ]   + | $ i %.%.X @.c L ! &.9     ",
"  *.= I I ;       | ( ( _ _ _ ! _ |         ",
"                                            "};
